# xmcd
#
# Track frame offsets: 
#        150
#        14521
#        30635
#        46365
#        69069
#        90657
#        108379
#        122820
#        136807
#        168281
#        192007
#
# Disc length: 2894 seconds
#
# Revision: 0
# Processed by: cddbd v1.5.2PL0 Copyright (c) Steve Scherf et al.
# Submitted via: ExactAudioCopy v0.99pb5
#
DISCID=860b4c0b
DTITLE=Niterail - splittin' at the seams
DYEAR=2010
DGENRE=Blues
TTITLE0=Gotta Keep Movin'
TTITLE1=Leave Your Light On
TTITLE2=Eventually
TTITLE3=Funky Mama
TTITLE4=Karma King
TTITLE5=North Wind
TTITLE6=Scooterbox
TTITLE7=Time For Me To Go
TTITLE8=Livin' A Lie
TTITLE9=Hungry Ghost
TTITLE10=Splittin' At The Seams
EXTD=
EXTT0=
EXTT1=
EXTT2=
EXTT3=
EXTT4=
EXTT5=
EXTT6=
EXTT7=
EXTT8=
EXTT9=
EXTT10=
PLAYORDER=
